<svg xmlns="http://www.w3.org/2000/svg" width="91.595" height="41.526" viewBox="0 0 91.595 41.526">
  <g id="Branding" transform="translate(-190.501 -79.965)">
    <g id="Group_299" data-name="Group 299">
      <path id="Path_942" data-name="Path 942" d="M236.771,86.525v6.561l5.688-3.266Z" fill="#0090df"/>
      <g id="Group_298" data-name="Group 298">
        <path id="Path_943" data-name="Path 943" d="M195.353,106.481c-1.746-.022-3.424.635-3.378,2.063.045,1.5,1.995,1.792,3.4,2.041,2,.34,4.739.68,4.626,3.288-.068,2.471-2.63,3.128-4.6,3.128a5.773,5.773,0,0,1-4.9-2.244l.816-.726a4.971,4.971,0,0,0,4.1,1.9c1.36,0,3.423-.363,3.491-2.131.046-1.61-1.813-1.927-3.65-2.222-2.177-.363-4.33-.771-4.353-3.016-.023-2.2,2.176-3.151,4.444-3.129a5.871,5.871,0,0,1,4.172,1.5l-.681.725A4.789,4.789,0,0,0,195.353,106.481Z" fill="#0090df"/>
        <path id="Path_944" data-name="Path 944" d="M203.946,101.969a.9.9,0,0,1-1.792,0A.9.9,0,0,1,203.946,101.969Zm-1.474,14.851h1.111V105.574h-1.111Z" fill="#0090df"/>
        <path id="Path_945" data-name="Path 945" d="M223.353,110.109a3.464,3.464,0,0,0-3.582-3.673,3.538,3.538,0,0,0-3.6,3.741v6.643h-1.111v-6.643a3.6,3.6,0,1,0-7.187,0v6.643h-1.111v-11.2H207.8l.022,1.859a3.946,3.946,0,0,1,3.651-2.086,4.119,4.119,0,0,1,4.149,2.766,4.327,4.327,0,0,1,4.149-2.766,4.505,4.505,0,0,1,4.693,4.716v6.711h-1.111Z" fill="#0090df"/>
        <path id="Path_946" data-name="Path 946" d="M227.366,105.62h1.088v2.652a5.34,5.34,0,0,1,4.852-2.811,5.787,5.787,0,0,1-.249,11.563,5.053,5.053,0,0,1-4.625-2.789v7.256h-1.066Zm10.271,5.6a4.313,4.313,0,0,0-4.58-4.693,4.719,4.719,0,0,0,0,9.431A4.35,4.35,0,0,0,237.637,111.22Z" fill="#0090df"/>
        <path id="Path_947" data-name="Path 947" d="M242.579,116.82h-1.111V100.949h1.111Z" fill="#0090df"/>
        <path id="Path_948" data-name="Path 948" d="M247.159,101.969a.9.9,0,0,1-1.791,0A.9.9,0,0,1,247.159,101.969Zm-1.474,14.851H246.8V105.574h-1.112Z" fill="#0090df"/>
        <path id="Path_949" data-name="Path 949" d="M251.127,106.685h-2.29v-.974h2.29v-1c0-2.222.884-3.832,3.355-3.832a3.666,3.666,0,0,1,2.222.771l-.544.816a3.063,3.063,0,0,0-1.723-.567c-1.406,0-2.222.862-2.222,2.812v1h3.7v.974h-3.7V116.82h-1.088Z" fill="#0090df"/>
        <path id="Path_950" data-name="Path 950" d="M259.765,101.969a.9.9,0,0,1-1.791,0A.9.9,0,0,1,259.765,101.969Zm-1.474,14.851H259.4V105.574h-1.111Z" fill="#0090df"/>
        <path id="Path_951" data-name="Path 951" d="M263.665,107.615a3.941,3.941,0,0,1,3.718-2.109,4.381,4.381,0,0,1,2.4.658l-.5.907a3.6,3.6,0,0,0-1.9-.522,3.72,3.72,0,0,0-3.7,3.741v6.53h-1.112v-11.2h1.043Z" fill="#0090df"/>
        <path id="Path_952" data-name="Path 952" d="M270.829,111.22a5.631,5.631,0,0,1,5.691-5.782c3.152,0,5.963,1.928,5.532,6.3H271.963a4.407,4.407,0,0,0,4.557,4.15,5.268,5.268,0,0,0,4.036-1.7l.794.635a6.161,6.161,0,0,1-4.83,2.154A5.493,5.493,0,0,1,270.829,111.22Zm5.691-4.761a4.476,4.476,0,0,0-4.557,4.307h9.092C281.032,108,279.218,106.459,276.52,106.459Z" fill="#0090df"/>
      </g>
      <path id="Path_953" data-name="Path 953" d="M236.772,99.645V93.085l-5.688,3.266Z" fill="#0090df"/>
      <path id="Path_954" data-name="Path 954" d="M236.771,93.085v6.561l5.688-3.266Z" fill="#0090df"/>
      <path id="Path_955" data-name="Path 955" d="M242.46,96.38V89.819l-5.688,3.266Z" fill="#0090df"/>
      <path id="Path_956" data-name="Path 956" d="M236.772,93.086V86.525l-5.688,3.266Z" fill="#0090df"/>
      <path id="Path_957" data-name="Path 957" d="M231.084,83.231v6.561l5.688-3.266Z" fill="#0090df"/>
      <path id="Path_958" data-name="Path 958" d="M236.769,86.526V79.965l-5.688,3.266Z" fill="#0090df"/>
      <path id="Path_959" data-name="Path 959" d="M237.365,79.971v6.561l5.688-3.266Z" fill="#0090df"/>
    </g>
  </g>
</svg>
